# xmcd
#
# Track frame offsets:
#	150
#	18720
#	35375
#	51955
#	69960
#	88113
#	102103
#	117413
#	133961
#	152408
#	164746
#	180159
#	192688
#	209004
#	223257
#	240436
#	256592
#	276621
#
# Disc length: 3934 seconds
#
# Revision: 0
# Processed by: cddbd v1.5.2PL0 Copyright (c) Steve Scherf et al.
# Submitted via: dBpowerAMP V4.0
#
DISCID=0f0f5c12
DTITLE=Various Artist - Universal Promo Sampler - Summer 07
DYEAR=2006
DGENRE=
TTITLE0=(You want to) Make a memory - Bon Jovi
TTITLE1=Do you know? (The ping pong song) - Enrique
TTITLE2=Te busque - Nelly Furtado feat. Juanes
TTITLE3=The pieces don't fit anymore - James Morrison
TTITLE4=Down on my knees - Ayo
TTITLE5=My moon my man - Feist
TTITLE6=Love today - Mika
TTITLE7=Overkill - Kosheen
TTITLE8=Read my mind - The Killers
TTITLE9=Everything is average in nowdays - Kaiser Chiefs
TTITLE10=Thinks fr th mmrs - Fall Out Boy
TTITLE11=Golden skans - Klaxons
TTITLE12=Whistle for the choir - The Fratellis
TTITLE13=Too late, too late - Mr. Hudson and The Library
TTITLE14=Mama's room - Under The Influence Of Giants
TTITLE15=Ubers ende der welt - Tokio Hotel
TTITLE16=Everybody takes a tumble - The Waterboys
TTITLE17=Lips of an angel - Hinder
EXTD=
EXTT0=
EXTT1=
EXTT2=
EXTT3=
EXTT4=
EXTT5=
EXTT6=
EXTT7=
EXTT8=
EXTT9=
EXTT10=
EXTT11=
EXTT12=
EXTT13=
EXTT14=
EXTT15=
EXTT16=
EXTT17=
PLAYORDER=
